<?xml version="1.0" encoding="UTF-8" standalone="no"?>
<!DOCTYPE svg PUBLIC "-//W3C//DTD SVG 1.1//EN" "http://www.w3.org/Graphics/SVG/1.1/DTD/svg11.dtd">
<svg width="100%" height="100%" viewBox="0 0 241 90" version="1.1" xmlns="http://www.w3.org/2000/svg" xmlns:xlink="http://www.w3.org/1999/xlink" xml:space="preserve" xmlns:serif="http://www.serif.com/" style="fill-rule:evenodd;clip-rule:evenodd;stroke-linejoin:round;stroke-miterlimit:2;">
    <path d="M5.69,54.7L5.69,59.44L78.61,59.44L83.58,54.7L5.69,54.7Z" style="fill:rgb(164,9,37);fill-rule:nonzero;"/>
    <path d="M8.44,0.84L2.01,9.91L2.01,9.95L5.74,9.95L5.74,50.58L14.97,50.58L14.97,0.84L8.44,0.84Z" style="fill:#fff;fill-rule:nonzero;"/>
    <path d="M29.72,0.84L29.72,27.41L16.44,32.79L29.72,32.79L29.72,50.58L39.98,50.58L39.98,0.84L29.72,0.84Z" style="fill:#fff;fill-rule:nonzero;"/>
    <path d="M62.87,0.84L62.87,40.81C62.87,42.66 62.01,43.06 60.54,43.06L52.41,43.06L54.69,41.36L54.69,0.84L46.23,0.84L46.23,41.06C46.23,47.88 49.47,50.84 55.11,50.84L62.81,50.84C69.52,50.84 71.86,45.92 71.86,41.56L71.86,0.84L62.87,0.84Z" style="fill:#fff;fill-rule:nonzero;"/>
    <path d="M96.03,0.84L96.03,23.29L88.72,23.29L92.86,20.19L83.99,0.84L78.34,0.84L78.34,50.58L88.33,50.58L88.33,30.03L90.21,30.03L100.06,50.58L106.4,50.58L106.4,0.84L96.03,0.84Z" style="fill:#fff;fill-rule:nonzero;"/>
    <path d="M129.2,0.84L112.5,0.84L112.5,50.58L129.2,50.58C136.77,50.58 138.37,44.99 138.37,40.76L138.37,10.81C138.37,4.26 135.13,0.84 129.2,0.84ZM128.7,39.76C128.7,41.61 128.2,42.11 126.47,42.11L118.38,42.11L121.32,40.36L121.32,8.71L126.41,8.71C128,8.71 128.7,9.71 128.7,11.66L128.7,39.76Z" style="fill:#fff;fill-rule:nonzero;"/>
    <path d="M162,0.84L143.89,0.84L143.89,50.58L153.88,50.58L153.88,36.81L154.47,36.81L160.94,49.08L171.78,49.08L164.58,34.96C168.18,32.31 170.38,27.71 170.38,26.31L170.38,12.11C170.38,4.56 167.44,0.84 162,0.84ZM161.4,24.8C161.4,26.71 160.8,27.41 159.06,27.41L150.23,27.41L153.87,25.6L153.87,8.71L158.86,8.71C160.6,8.71 161.4,9.71 161.4,11.76L161.4,24.8Z" style="fill:#fff;fill-rule:nonzero;"/>
    <path d="M187,42.11L187,30.94L193.64,30.94L193.64,22.64L187.35,22.64L187.35,9.91L198.64,9.91L198.64,1.04L177.01,1.04L177.01,50.58L198.44,50.58L198.44,42.11L187,42.11Z" style="fill:#fff;fill-rule:nonzero;"/>
    <path d="M221.4,0.84L204.15,0.84L204.15,50.58L221.4,50.58C228.97,50.58 231.11,44.99 231.11,40.76L231.11,10.81C231.11,4.26 227.32,0.84 221.4,0.84ZM221.8,39.76C221.8,41.61 220.91,42.11 219.5,42.11L210.21,42.11L213.36,40.36L213.36,8.71L218.9,8.71C220.5,8.71 221.4,9.71 221.4,11.66L221.4,39.76L221.8,39.76Z" style="fill:#fff;fill-rule:nonzero;"/>
    <path d="M109.1,60.41C106.94,61.76 100.98,66.65 99.29,66.65C98.86,66.65 98.67,66.21 98.67,65.76C98.67,63.71 102.8,60.01 102.8,58.41C102.8,57.46 101.7,56.81 100.93,56.81C99.98,56.81 98.09,57.81 97.91,57.61C98.3,56.81 98.8,56.11 98.8,55.21C98.8,54.61 98.3,54.31 97.75,54.31C96.7,54.31 96.1,56.31 95.85,57.31C93.71,59.81 90.5,61.76 86.72,62.11C88.01,60.01 88.9,58.06 88.9,56.81C88.9,55.36 87.31,54.81 86.51,54.81C82.92,54.81 77.28,62.91 77.28,66.51C77.28,68.16 78.38,68.71 79.42,68.71C82.07,68.71 84.51,66.31 86.5,63.86C90.74,63.81 94.56,62.01 97.05,59.31C97.89,60.11 98.98,60.01 100.12,59.81C98.73,61.96 96.63,64.36 96.63,66.56C96.63,68.06 97.97,68.71 99.02,68.71C102.06,68.71 107.25,63.96 109.54,62.71L109.59,62.66L109.59,60.41L109.1,60.41ZM80.37,66.96C80.02,66.96 79.87,66.71 79.87,66.31C79.87,64.41 83.21,59.26 85.05,57.56L85.2,57.71C84.85,59.16 83.9,61.21 82.71,63.21C82.41,63.51 83.36,63.81 83.76,63.91C82.71,65.46 81.32,66.96 80.37,66.96Z" style="fill:rgb(164,9,37);fill-rule:nonzero;"/>
    <path d="M196.7,46.32C195.2,46.32 193.86,49.62 192.22,52.76L192.91,53.61L197.3,50.11C197.8,49.72 198.1,48.82 198.1,47.97C198.1,47.02 197.6,46.32 196.7,46.32Z" style="fill:rgb(164,9,37);fill-rule:nonzero;"/>
    <path d="M238.7,57.21C234.01,59.21 230.91,60.91 227.97,62.61C228.77,60.71 229.87,58.16 229.87,57.01C229.87,56.06 228.97,55.26 228.18,55.26C227.48,55.26 227.08,56.16 226.68,56.56C226.08,55.71 225.53,54.81 224.34,54.81C221.35,54.81 217.15,61.06 215.94,63.61C214.52,64.91 212.86,65.91 211.74,65.91C208.99,65.91 210.29,59.01 209.24,57.11C208.99,56.66 208.54,56.46 208.04,56.46C205.9,56.46 203,60.31 201.81,61.71L201.71,61.61C202.45,60.06 203.55,57.86 203.55,56.66C203.55,55.96 202.95,55.46 202.26,55.46C201.09,57.16 193.7,65.31 190.11,65.31C189.61,65.31 189.41,64.86 189.41,64.36C189.41,62.36 192.01,58.46 192.41,57.71L191.66,56.81C189.49,58.63 187.39,61.45 185.95,63.32C184.18,64.61 182.6,65.41 180.66,65.41C177.12,65.41 179.81,60.26 177.77,60.26C174.93,60.26 171.04,65.06 169.19,66.21L169.09,66.11C172.03,60.01 176.13,51.91 182.91,43.42L182.76,41.32C180.07,41.32 179.76,43.97 178.27,46.82C176.73,49.96 170.74,57.61 168.73,62.81C165.8,64.71 162.15,66.96 159.01,66.96C157.91,66.96 157.37,66.51 157.37,65.31C157.37,63.01 159.86,58.76 161.45,55.91C164.2,55.71 167.93,54.41 169.18,52.11L168.93,51.46C166.93,52.46 164.74,53.26 162.65,53.61C164.64,50.21 167.98,45.17 168.63,44.12L166.14,43.57L160.2,53.66C158.41,54.01 156.07,54.41 155.07,55.46L155.22,56.71C156.37,56.36 157.71,56.06 158.81,55.91C156.8,58.56 153.6,61.61 148.87,62.06C150.16,59.96 151.05,58.01 151.05,56.76C151.05,55.31 149.46,54.76 148.67,54.76C146.1,54.76 142.54,58.66 140.48,62.56C138.54,64.48 136.79,65.86 135.51,65.86C132.77,65.86 134.06,58.96 133.01,57.06C132.76,56.61 132.31,56.41 131.81,56.41C129.67,56.41 126.78,60.26 125.58,61.66L125.48,61.56C126.23,60.01 127.33,57.81 127.33,56.61C127.33,55.91 126.73,55.41 126.03,55.41C124.74,57.41 120.5,65.91 120.5,67.66C120.5,68.01 120.7,68.56 121.2,68.56C122.34,68.56 128.13,59.91 130.83,58.71L130.93,58.81C130.78,61.16 130.73,67.56 134.87,67.56C136.28,67.56 137.78,66.46 139.18,65.07C138.83,67.07 139.4,68.61 141.58,68.61C144.22,68.61 146.66,66.21 148.66,63.76C152.14,63.69 155,62.32 157.22,60.41C156.15,62.71 154.77,65.06 154.77,66.51C154.77,68.51 156.97,69.06 158.46,69.06C161.73,69.06 165.03,67.09 167.83,65.09C167.45,66.01 167.19,66.81 167.19,67.36C167.19,68.16 168.03,68.61 168.73,68.61C170.83,68.61 175.61,61.71 177.86,61.31C178.21,63.51 177.71,67.01 181.8,67.01C183.7,67.01 185.73,65.88 187.55,64.42C187.41,64.91 187.31,65.36 187.31,65.71C187.31,67.06 188.11,67.71 189.4,67.71C192.8,67.71 197.87,63.28 200.4,60.66L200.5,60.76C199.4,62.81 197.41,66.46 197.41,67.71C197.41,68.06 197.61,68.61 198.11,68.61C199.25,68.61 205.04,59.96 207.74,58.76L207.84,58.86C207.69,61.21 207.64,67.61 211.78,67.61C213.09,67.61 214.48,66.66 215.8,65.4C215.74,65.69 215.7,65.96 215.7,66.21C215.7,67.06 216.44,67.76 217.24,67.76C219.74,67.76 224.77,62.66 226.22,60.91L226.32,61.01L224.47,65.51C220.08,68.61 204.68,82.61 204.68,88.11C204.68,89.16 205.23,89.71 206.07,89.71C211.16,89.71 221.63,73.11 224.87,66.71C229.31,63.56 233.55,61.21 238.94,58.61L239.04,57.46L238.7,57.21ZM142.53,66.86C142.18,66.86 142.03,66.61 142.03,66.21C142.03,64.31 145.37,59.16 147.21,57.46L147.36,57.61C147.01,59.06 146.07,61.11 144.87,63.11C144.57,63.41 145.52,63.71 145.92,63.81C144.87,65.36 143.48,66.86 142.53,66.86ZM206.03,87.91C205.73,87.91 205.58,87.61 205.58,87.31C205.58,83.71 215.85,72.01 220.53,69.21L220.63,69.31C218.34,73.66 209.57,87.91 206.03,87.91ZM217.74,64.76L217.59,64.66C218.14,62.11 222.68,56.61 224.67,56.61C225.27,56.61 225.62,57.16 225.62,57.71C225.62,59.01 219.93,64.31 217.74,64.76Z" style="fill:rgb(164,9,37);fill-rule:nonzero;"/>
</svg>
