<?xml version="1.0" encoding="UTF-8" standalone="no"?>
<!DOCTYPE svg PUBLIC "-//W3C//DTD SVG 1.1//EN" "http://www.w3.org/Graphics/SVG/1.1/DTD/svg11.dtd">
<svg width="100%" height="100%" viewBox="0 0 177 224" version="1.1" xmlns="http://www.w3.org/2000/svg" xmlns:xlink="http://www.w3.org/1999/xlink" xml:space="preserve" xmlns:serif="http://www.serif.com/" style="fill-rule:evenodd;clip-rule:evenodd;stroke-linejoin:round;stroke-miterlimit:2;">
    <path d="M164.9,4.39L164.9,4.43C172.1,4.85 174.08,7.26 174.08,12.44L174.08,210.84C174.08,215.01 173.68,218.76 166.99,219.28C159.89,219.91 156.03,220.06 150.05,219.91C142.85,219.73 135.21,220.37 127.94,219.68C119.59,218.91 119.59,213.93 120.15,207.4L120.04,146.84L74.7,146.84C73.48,146.84 72.82,147.08 71.65,145.78L71.7,210.85C71.7,214.41 70.72,219.01 64.29,219.01L26.79,219.29C20.58,219.6 19.81,213.19 19.81,207.82L19.81,52.82L11.78,52.82C9.36,52.81 4.91,53.41 3.25,49.69C1.83,46.26 4.86,43.1 6.96,39.94C14.38,29.38 22.86,18.26 32.01,8.06C33.68,5.86 35.39,3.99 38.02,3.99L66.69,3.99C70.88,3.79 71.69,8.76 71.69,12.91L71.69,135.41C91.24,126.18 106.45,120.48 118.98,113.68L119.29,14.85C119.25,13.783 119.221,12.775 119.238,11.842C119.321,8.569 121.75,5.833 124.989,5.364C130.479,4.421 133.09,4.51 137.75,4.51C146.52,4.51 156.25,4.65 164.9,4.39ZM37.9,8.94L37.9,8.92C31.88,16.65 23.35,26.59 16.99,34.97C12.05,41.42 8.83,45.75 8.69,46.74C8.61,47.59 10.65,47.51 13.07,47.51C16.21,47.51 18.78,47.32 21.92,47.32C23.51,47.32 24.92,48.03 24.92,50.28L24.92,208.18C24.92,211.71 25.05,214.5 26.56,214.5L64.06,214.22C66.63,214.22 67.11,213.94 67.11,210.38L67.11,12.88C66.85,8.94 66.85,8.94 65.76,8.94L37.9,8.94ZM168.28,212.1L168.28,212.09L168.28,14.3C168.28,11.83 169.64,9.23 165.19,9.18C155.01,9.1 134.54,9.38 127.63,9.38C124.75,9.38 125.29,12.26 125.21,14.92L124.75,116.62C106.23,127.03 90.29,131.91 76.05,139.75C75.46,140.09 74.58,140.71 75.78,141.72L125.42,141.72L125.22,209.2C125.08,214.82 125.22,214.57 129.14,215.05C135.58,215.84 142.34,215.67 148.95,215.36C155.19,215.05 160.39,215.47 166.85,214.78C168.128,214.73 168.279,213.923 168.28,212.1Z"/>
</svg>
