<?xml version="1.0" encoding="UTF-8" standalone="no"?>
<!DOCTYPE svg PUBLIC "-//W3C//DTD SVG 1.1//EN" "http://www.w3.org/Graphics/SVG/1.1/DTD/svg11.dtd">
<svg width="100%" height="100%" viewBox="0 0 2607 1540" version="1.1" xmlns="http://www.w3.org/2000/svg" xmlns:xlink="http://www.w3.org/1999/xlink" xml:space="preserve" xmlns:serif="http://www.serif.com/" style="fill-rule:evenodd;clip-rule:evenodd;stroke-linejoin:round;stroke-miterlimit:2;">
    <g transform="matrix(1,0,0,1,-747,-1278.7)">
        <g transform="matrix(1,0,0,1,1783.25,1278.81)">
            <path d="M0,0L3.443,0.001C27.658,0.027 51.819,0.474 75.729,4.672C78.722,5.183 81.719,5.658 84.718,6.126C110.774,10.191 136.55,15.012 161.592,23.476C163.765,24.192 165.947,24.857 168.141,25.508C210.891,38.262 251.538,58.813 288.75,83.188L292.797,85.805C312.743,98.794 331.749,113.359 349.097,129.662C351.195,131.598 353.332,133.489 355.465,135.387C360.794,140.175 365.884,145.173 370.938,150.25L373.514,152.814C378.469,157.777 383.193,162.859 387.75,168.188C388.807,169.391 389.865,170.593 390.926,171.793C397.351,179.113 403.55,186.53 409.372,194.341C410.354,195.657 411.341,196.97 412.331,198.28C421.366,210.237 429.803,222.481 437.75,235.188L439.256,237.595C467.24,282.636 487.68,330.532 499.75,382.188L500.54,385.456C502.299,392.829 503.65,400.189 504.75,407.688L505.211,410.734C505.533,412.877 505.846,415.021 506.152,417.166C506.558,419.966 507.015,422.752 507.497,425.54C509.926,440.154 510.173,454.498 510.131,469.286C510.134,471.974 510.139,474.663 510.145,477.351C510.156,483.161 510.156,488.97 510.148,494.78C510.137,503.419 510.142,512.058 510.152,520.698C510.167,536.134 510.166,551.57 510.157,567.006C510.15,580.515 510.148,594.024 510.151,607.533L510.152,610.254L510.155,621.192C510.164,655.354 510.156,689.516 510.14,723.678C510.125,753.992 510.127,784.306 510.141,814.62C510.157,848.722 510.164,882.823 510.154,916.925L510.151,927.842L510.151,930.557C510.147,944.054 510.151,957.55 510.159,971.046C510.167,986.401 510.165,1001.76 510.149,1017.11C510.14,1025.69 510.14,1034.27 510.151,1042.85C510.158,1048.6 510.153,1054.34 510.14,1060.09C510.133,1063.35 510.132,1066.62 510.142,1069.88C510.179,1084.2 509.541,1097.98 507.102,1112.11C506.603,1115.06 506.197,1118.01 505.793,1120.98C502.367,1144.7 497.017,1167.56 489.653,1190.37C488.846,1192.89 488.066,1195.41 487.305,1197.95L486.656,1200.09C486.12,1201.87 485.585,1203.65 485.051,1205.43C483.563,1209.73 481.834,1213.88 480.064,1218.07C478.85,1220.95 477.667,1223.84 476.496,1226.73C459.075,1269.47 436.823,1311.87 406.75,1347.19L403.996,1350.46C398.981,1356.43 393.949,1362.38 388.75,1368.19L386.535,1370.68C379.846,1378.08 372.875,1385.19 365.846,1392.27C364.756,1393.37 363.667,1394.46 362.58,1395.57C356.376,1401.84 350.103,1407.76 343.171,1413.23C340.723,1415.21 338.421,1417.29 336.125,1419.44C329.069,1425.86 321.399,1431.5 313.75,1437.19L311.873,1438.58C298.838,1448.22 285.014,1456.54 271.016,1464.69C268.219,1466.32 265.439,1467.97 262.672,1469.65C252.174,1475.99 241.361,1481.54 230.343,1486.91C227.691,1488.22 225.057,1489.55 222.422,1490.89C219.145,1492.53 215.925,1493.98 212.438,1495.12C208.393,1496.54 204.557,1498.16 200.688,1500C144.535,1526.3 78.4,1539.29 16.461,1539.36L12.754,1539.37C10.177,1539.37 7.601,1539.37 5.024,1539.37C1.183,1539.38 -2.658,1539.39 -6.5,1539.41C-28.524,1539.46 -50.512,1538.55 -72.313,1535.25L-75.984,1534.71C-78.358,1534.37 -80.732,1534.01 -83.104,1533.65C-85.768,1533.26 -88.432,1532.89 -91.102,1532.54C-135.16,1526.57 -178.896,1510.98 -219.006,1492.23C-221.134,1491.24 -223.273,1490.29 -225.418,1489.34C-238.249,1483.61 -250.211,1476.41 -262.25,1469.19L-264.821,1467.66C-274.933,1461.63 -284.758,1455.29 -294.377,1448.51C-296.177,1447.24 -297.986,1445.98 -299.797,1444.73C-308.349,1438.77 -316.428,1432.3 -324.459,1425.66C-325.996,1424.4 -327.551,1423.16 -329.109,1421.92C-341.959,1411.72 -353.538,1399.99 -365.168,1388.44C-366.205,1387.41 -367.244,1386.39 -368.285,1385.36C-374.275,1379.44 -379.892,1373.38 -385.147,1366.79C-387.148,1364.31 -389.224,1361.95 -391.359,1359.59C-395.348,1355.15 -398.949,1350.48 -402.5,1345.69L-404.465,1343.04C-406.401,1340.43 -408.327,1337.81 -410.25,1335.19L-411.861,1333C-460.345,1266.82 -489.738,1188.39 -499.986,1107.23C-500.237,1105.29 -500.504,1103.35 -500.773,1101.42C-502.526,1088.09 -502.53,1074.85 -502.504,1061.43L-502.513,1053.69C-502.521,1048.11 -502.52,1042.52 -502.515,1036.94C-502.508,1028.64 -502.512,1020.34 -502.518,1012.04C-502.528,997.206 -502.527,982.374 -502.522,967.542C-502.517,954.557 -502.515,941.572 -502.518,928.587L-502.518,925.972L-502.52,915.461C-502.526,882.62 -502.521,849.778 -502.51,816.936C-502.5,787.805 -502.501,758.673 -502.511,729.541C-502.521,696.768 -502.526,663.995 -502.52,631.222L-502.518,620.724L-502.517,618.114C-502.515,605.147 -502.518,592.18 -502.523,579.213C-502.528,564.453 -502.527,549.692 -502.516,534.932C-502.51,526.687 -502.51,518.443 -502.517,510.199C-502.522,504.018 -502.517,497.837 -502.507,491.656C-502.505,489.175 -502.506,486.693 -502.511,484.211C-502.549,463.238 -501.809,442.285 -497.938,421.625L-497.283,417.996C-491.583,386.782 -491.583,386.782 -487.324,372.742C-486.515,370.066 -485.752,367.393 -485.02,364.695C-477.442,336.969 -467.252,310.281 -455.25,284.188L-454.034,281.537C-436.447,243.439 -414.144,208.158 -386.875,176.285C-384.399,173.383 -382.01,170.415 -379.625,167.438C-376.181,163.2 -372.532,159.323 -368.586,155.551C-366.62,153.562 -364.798,151.537 -362.973,149.422C-359.259,145.141 -355.33,141.119 -351.313,137.125L-349.299,135.1C-344.781,130.59 -340.092,126.345 -335.25,122.188C-334.179,121.25 -333.109,120.311 -332.039,119.371C-315.982,105.381 -299.02,92.915 -281.25,81.188L-278.809,79.57C-235.869,51.285 -187.242,30.602 -137.521,17.787C-134.347,16.949 -131.207,16.004 -128.063,15.063C-122.564,13.479 -117.031,12.193 -111.438,11L-109.083,10.494C-104.396,9.523 -99.763,8.858 -94.993,8.44C-93.224,8.361 -93.224,8.361 -92.25,7.188C-90.888,6.925 -89.515,6.72 -88.139,6.539L-85.484,6.185L-82.574,5.813L-79.561,5.42C-77.438,5.146 -75.316,4.874 -73.193,4.604C-70.016,4.198 -66.841,3.779 -63.666,3.359C-42.411,0.601 -21.417,-0.019 0,0ZM-14.707,253.055C-18.288,253.046 -21.857,252.863 -25.362,253.68C-27.262,254.239 -27.262,254.239 -29.318,254.437L-31.523,254.617L-34.001,254.833C-42.084,255.539 -49.96,256.488 -57.875,258.336L-61.25,259.188C-67.906,260.865 -74.552,262.561 -81.063,264.75C-82.455,265.238 -83.851,265.718 -85.25,266.188C-112.085,273.363 -138.596,289.092 -160.469,305.996L-163.25,308.188C-180.432,321.352 -195.194,337.591 -207.977,355.012L-210.25,358.188C-230.974,387.112 -245.306,417.893 -251.714,453.13L-252.25,456.188C-254.388,468.215 -254.526,480.051 -254.488,492.242C-254.481,494.621 -254.477,496.999 -254.476,499.378C-254.479,505.204 -254.478,511.03 -254.466,516.855C-254.45,524.433 -254.441,532.01 -254.438,539.588C-254.434,551.884 -254.423,564.18 -254.404,576.475C-254.386,588.442 -254.37,600.409 -254.361,612.376L-254.36,614.627L-254.348,632.408C-254.34,643.688 -254.331,654.967 -254.32,666.246L-254.25,720.188L-384.25,720.188L-384.25,450.188L-489.25,450.188C-490.25,451.188 -490.25,451.188 -490.375,453.004L-490.374,455.435L-490.381,458.234L-490.373,461.353C-490.377,464.855 -490.379,468.357 -490.375,471.859C-490.371,475.122 -490.37,478.384 -490.372,481.646C-490.375,487.36 -490.375,493.073 -490.371,498.786C-490.365,507.355 -490.363,515.925 -490.364,524.494C-490.365,538.897 -490.363,553.301 -490.357,567.705C-490.351,582.05 -490.346,596.395 -490.345,610.741L-490.345,613.435L-490.344,626.99C-490.342,659.017 -490.336,691.045 -490.326,723.072C-490.317,754.252 -490.31,785.431 -490.305,816.611L-490.305,819.523L-490.301,848.495L-490.293,907.579L-490.292,910.325C-490.283,971.612 -490.267,1032.9 -490.25,1094.19C-477.706,1094.21 -465.163,1094.23 -452.619,1094.24C-446.232,1094.24 -439.844,1094.25 -433.456,1094.26C-427.191,1094.27 -420.926,1094.28 -414.661,1094.28L-407.535,1094.29C-404.099,1094.29 -400.663,1094.3 -397.227,1094.3L-394.094,1094.3L-391.101,1094.31L-388.394,1094.31C-387.012,1094.31 -385.629,1094.28 -384.25,1094.19C-383.25,1093.19 -383.25,1093.19 -383.126,1091.38L-383.127,1088.96L-383.121,1086.17L-383.13,1083.08C-383.127,1079.63 -383.126,1076.17 -383.131,1072.72C-383.135,1070.18 -383.137,1067.63 -383.137,1065.09C-383.136,1058.91 -383.136,1052.73 -383.142,1046.55C-383.15,1038.48 -383.155,1030.41 -383.156,1022.34C-383.158,1009.27 -383.164,996.196 -383.173,983.125C-383.182,970.379 -383.19,957.633 -383.194,944.888L-383.195,942.498L-383.201,923.627L-383.215,887.684L-383.25,830.188L-254.25,830.188C-254.268,856.518 -254.288,882.848 -254.298,909.178L-254.304,927.576L-254.305,929.711C-254.309,941 -254.316,952.289 -254.325,963.578C-254.334,974.545 -254.341,985.513 -254.343,996.481C-254.345,1003.02 -254.345,1009.57 -254.351,1016.11C-254.358,1022.36 -254.364,1028.6 -254.364,1034.85L-254.364,1041.8C-254.395,1059.8 -254.487,1077.47 -250.691,1095.14L-250.25,1097.19C-248.162,1107.29 -245.552,1116.9 -241.742,1126.5L-240.25,1130.19C-234.034,1146 -226.866,1161.2 -217.464,1175.37L-216.25,1177.19C-210.922,1185.32 -205.189,1192.91 -198.816,1200.25L-196.25,1203.19C-192.774,1207.32 -189.341,1211.21 -185.25,1214.75C-183.321,1216.38 -181.433,1218 -179.645,1219.79C-178.547,1220.93 -177.439,1222.07 -176.324,1223.19C-124.795,1272.78 -55.702,1290.76 14.01,1289.45C73.243,1287.94 139.446,1265.38 181.34,1221.76C182.675,1220.34 184.012,1218.91 185.36,1217.5C191.761,1210.79 198.162,1204.09 203.84,1196.75L205.75,1194.19C219.889,1175.33 231.078,1155.2 240.344,1133.51L241.75,1130.19C245.164,1123.21 247.45,1116.03 249.559,1108.58C250.21,1106.24 250.865,1103.91 251.546,1101.58C257.691,1080.62 258.054,1059.84 258.066,1038.12C258.067,1034.28 258.078,1030.44 258.091,1026.61C258.114,1019.94 258.132,1013.27 258.143,1006.6C258.157,996.892 258.179,987.188 258.207,977.484C258.253,961.736 258.291,945.988 258.323,930.24C258.353,914.912 258.386,899.584 258.425,884.255L258.433,881.38L258.47,867.082C258.574,827.458 258.665,787.834 258.746,748.21L258.75,746.188L259.778,748.436L261.133,751.406C264.525,758.836 267.464,766.384 270.27,774.052C272.464,780.054 274.631,786.052 277.125,791.938C279.086,796.541 280.932,801.181 282.746,805.844C286.016,814.262 289.331,822.658 292.749,831.018C298.061,843.981 303.241,856.987 308.34,870.035C309.5,873.005 310.664,875.973 311.848,878.933C313.629,883.36 315.375,887.793 317.039,892.266C319.157,897.992 321.33,903.688 323.607,909.353C329.541,924.073 335.512,938.779 341.125,953.625C343.382,959.607 345.672,965.57 348.063,971.5C349.455,974.935 350.819,978.371 352.12,981.842C353.478,985.471 354.858,989.09 356.249,992.707L357.148,995.043L360.11,1002.74L362.129,1007.98L368.75,1025.19C370.418,1029.52 372.086,1033.85 373.75,1038.19C376.159,1044.51 378.572,1050.82 381.188,1057.06C382.541,1060.27 383.86,1063.47 385.117,1066.71C387.478,1072.8 389.94,1078.72 392.874,1084.56L393.949,1086.67C395.213,1089.18 396.48,1091.68 397.75,1094.19C409.329,1094.23 420.909,1094.26 432.488,1094.29C438.387,1094.3 444.285,1094.3 450.184,1094.33C455.967,1094.35 461.751,1094.37 467.534,1094.37L474.117,1094.38C477.288,1094.4 480.459,1094.41 483.629,1094.41L486.527,1094.41C489.631,1094.44 492.646,1094.38 495.75,1094.19C497.75,1092.19 497.75,1092.19 497.999,1090.25L497.998,1087.82L498.012,1085.02L497.996,1081.91C498.004,1078.42 498.008,1074.92 498,1071.42C497.992,1068.17 497.991,1064.91 497.994,1061.65C497.999,1055.95 497.999,1050.25 497.992,1044.54C497.98,1035.99 497.975,1027.43 497.977,1018.88C497.98,1004.5 497.975,990.123 497.964,975.744C497.952,961.425 497.943,947.106 497.94,932.787L497.94,930.097L497.938,916.564C497.934,884.593 497.921,852.621 497.903,820.65C497.884,789.525 497.869,758.401 497.861,727.277L497.86,724.37L497.852,695.446L497.836,636.463L497.835,633.722C497.816,572.544 497.784,511.366 497.75,450.188L392.75,450.188L392.75,787.188L389.75,786.188L389.153,784.367C388.75,782.188 388.75,782.188 388.073,780.287L387.297,778.316L386.428,776.099C385.795,774.497 385.164,772.895 384.534,771.292L383.566,768.824C382.538,766.207 381.523,763.587 380.527,760.957C377.745,753.568 374.733,746.285 371.688,739C369.687,734.233 367.669,729.473 365.74,724.677C364.358,721.2 362.973,717.726 361.54,714.27C353.988,696.229 346.747,678.092 339.706,659.846C336.448,651.403 333.179,642.964 329.908,634.525L327.5,628.313C321.49,612.805 315.463,597.305 309.402,581.818L308.25,578.875C304.614,569.582 300.983,560.288 297.306,551.011C292.6,539.141 287.995,527.249 283.625,515.25C270.5,479.186 258.214,441.922 240.96,407.579L239.75,405.188C229.962,385.702 219.593,367.116 206.115,349.927L204.75,348.188C198.86,340.52 192.449,333.602 185.539,326.859L181.75,323.188C133.397,275.51 68.553,253.02 1.232,253.051C-1.443,253.057 -4.117,253.062 -6.792,253.057C-8.58,253.053 -10.368,253.051 -12.156,253.052L-14.707,253.055ZM-146.25,461.188L-47.25,461.188L-47.222,508.364L-47.2,539.552L-47.199,541.553C-47.182,563.789 -47.16,586.025 -47.133,608.261L-47.131,610.46L-47.072,657.781L-47.042,680.987L-47.04,683.32C-47.008,708.263 -46.99,733.206 -46.978,758.149C-46.966,783.785 -46.941,809.421 -46.899,835.056L-46.882,845.923L-46.878,848.083C-46.861,859.551 -46.857,871.019 -46.858,882.488C-46.859,894.021 -46.846,905.555 -46.818,917.089C-46.803,923.337 -46.795,929.584 -46.804,935.831C-46.812,941.554 -46.802,947.276 -46.778,952.998C-46.772,955.065 -46.773,957.133 -46.781,959.2C-46.844,975.835 -44.663,989.756 -33.375,1002.81C-22.454,1013.17 -8.681,1015.58 5.68,1015.4C17.238,1015.06 28.411,1011.52 37,1003.56C45.034,994.976 49.063,984.932 49.012,973.313L49.024,970.626C49.035,967.646 49.032,964.667 49.028,961.687L49.046,955.224C49.062,949.298 49.065,943.371 49.067,937.444C49.07,931.056 49.086,924.667 49.099,918.279C49.122,907.208 49.137,896.137 49.147,885.066C49.157,873.454 49.172,861.843 49.192,850.231L49.196,848.044L49.215,837.046C49.261,811.077 49.297,785.108 49.328,759.14C49.358,733.911 49.393,708.682 49.433,683.453L49.436,681.097L49.474,657.669L49.549,609.945L49.552,607.729C49.587,585.308 49.619,562.888 49.649,540.468L49.654,536.662C49.687,511.504 49.718,486.346 49.75,461.188L150.75,461.188C150.79,521.597 150.79,521.597 150.801,540.518L150.802,542.544C150.816,565.05 150.826,587.556 150.835,610.062L150.836,612.287L150.852,660.176L150.86,683.661L150.861,686.021C150.869,711.269 150.884,736.517 150.903,761.765C150.921,787.712 150.934,813.658 150.938,839.605L150.94,850.6L150.94,852.786C150.943,864.395 150.952,876.005 150.964,887.615C150.975,899.288 150.98,910.96 150.977,922.633C150.976,928.957 150.978,935.281 150.988,941.605C150.998,947.395 150.999,953.185 150.992,958.975C150.991,961.069 150.993,963.164 151,965.258C151.008,968.107 151.003,970.956 150.996,973.805L151.012,976.263C150.849,1004.15 136.472,1035.18 118.75,1056.19L116.504,1058.86C102.279,1075.19 85.137,1086.81 65.75,1096.19L63.632,1097.22C57.829,1099.94 51.954,1101.69 45.75,1103.25L42.668,1104.03C39.699,1104.76 36.725,1105.48 33.75,1106.19L31.499,1106.75C15.717,1110.6 -3.317,1111.42 -19.25,1108.19L-20.25,1107.19C-22.351,1106.93 -24.456,1106.71 -26.563,1106.5C-56.957,1102.78 -85.977,1086.9 -107.25,1065.19L-109.695,1062.7C-125.082,1046.3 -135,1026.7 -141.25,1005.19L-142.309,1001.72C-143.253,998.175 -143.842,994.756 -144.313,991.125L-144.785,987.59C-146.255,974.455 -146.391,961.417 -146.37,948.218L-146.373,941.896C-146.375,936.135 -146.371,930.375 -146.366,924.615C-146.362,918.391 -146.363,912.168 -146.364,905.945C-146.364,895.172 -146.361,884.4 -146.356,873.628C-146.35,862.335 -146.346,851.043 -146.345,839.751L-146.345,837.62L-146.344,826.903C-146.342,801.632 -146.335,776.361 -146.325,751.09C-146.316,726.547 -146.309,702.003 -146.305,677.459L-146.305,675.165L-146.301,652.354L-146.292,605.888L-146.292,603.73C-146.283,556.216 -146.266,508.702 -146.25,461.188ZM1047.66,-0.073C1052.04,-0.062 1056.42,-0.069 1060.8,-0.08C1080.21,-0.123 1099.43,0.134 1118.75,2.188L1120.92,2.417C1124.77,2.839 1128.61,3.357 1132.44,3.938L1135.89,4.448C1149.93,6.587 1163.85,9.291 1177.75,12.188L1181.46,12.948C1209.21,18.715 1235.81,27.68 1262,38.438L1264.07,39.286C1273.59,43.207 1282.81,47.589 1291.97,52.279C1294.45,53.545 1296.94,54.786 1299.43,56.031C1331.2,72.17 1360.51,92.269 1387.75,115.188L1389.36,116.541C1391.12,118.023 1392.87,119.51 1394.62,121L1396.19,122.324C1406.71,131.337 1416.68,140.95 1426.45,150.762C1428.14,152.454 1429.83,154.141 1431.53,155.828C1437.15,161.447 1442.6,167.126 1447.75,173.188C1448.75,174.31 1449.75,175.43 1450.75,176.547C1459.03,185.865 1466.56,195.649 1473.92,205.702C1475.66,208.065 1477.41,210.414 1479.17,212.762C1491.57,229.468 1501.62,247.435 1511.43,265.75C1512.57,267.855 1513.73,269.946 1514.89,272.031C1528.43,296.519 1538.89,323.364 1546.75,350.188C1547.41,352.292 1548.08,354.396 1548.75,356.5C1551.14,364.27 1553.16,372.133 1555.19,380.003C1555.68,381.923 1556.19,383.839 1556.7,385.754C1558.23,391.589 1559.16,397.187 1559.75,403.188L1560.75,404.188C1561.25,406.661 1561.69,409.119 1562.09,411.609L1562.47,413.995C1562.89,416.641 1563.29,419.289 1563.69,421.938L1564.1,424.694C1567.34,446.753 1568.04,468.893 1568.49,491.16L1568.55,493.967L1568.59,496.376C1568.72,498.703 1568.96,500.951 1569.25,503.261C1569.8,508.13 1569.89,512.932 1569.88,517.828L1569.89,520.655C1569.89,523.775 1569.89,526.895 1569.89,530.015L1569.9,536.802C1569.91,543.015 1569.91,549.229 1569.91,555.442C1569.91,561.457 1569.92,567.473 1569.92,573.488C1569.94,589.606 1569.95,605.725 1569.95,621.843L1569.96,644.758C1569.97,670.944 1569.98,697.13 1569.99,723.316L1569.99,728.247L1569.99,733.188L1569.99,743.101L1569.99,745.584C1569.99,772.086 1570.01,798.589 1570.03,825.092C1570.06,853.16 1570.07,881.229 1570.07,909.297L1570.07,918.571L1570.07,920.877C1570.08,933.047 1570.09,945.218 1570.1,957.388C1570.12,969.664 1570.12,981.94 1570.11,994.215C1570.11,1000.85 1570.11,1007.48 1570.12,1014.11C1570.23,1070.17 1566.14,1123.59 1548.7,1177.23C1547.7,1180.35 1546.74,1183.49 1545.79,1186.64C1543.81,1193.12 1541.57,1199.5 1539.25,1205.88L1538.11,1209.06C1530.24,1230.81 1520.91,1251.93 1509.75,1272.19L1508.14,1275.14C1500.63,1288.95 1492.76,1302.3 1483.75,1315.19L1480.79,1319.47C1471.59,1332.72 1461.87,1345.59 1451.56,1357.99C1449.73,1360.16 1449.73,1360.16 1448.13,1362.48L1446.75,1364.19L1444.75,1364.19L1443.94,1365.97C1442.74,1368.21 1441.47,1369.78 1439.73,1371.62L1437.9,1373.57L1435.94,1375.62L1433.91,1377.76C1417.4,1395.12 1417.4,1395.12 1408.82,1402.4C1406.71,1404.22 1404.67,1406.12 1402.64,1408.03C1395.67,1414.53 1388.35,1420.44 1380.75,1426.19L1378.63,1427.79C1361.91,1440.39 1344.77,1452.53 1326.75,1463.19L1322.86,1465.54C1289.78,1485.37 1254.29,1500.95 1217.84,1513.46C1215.82,1514.16 1213.82,1514.88 1211.81,1515.61C1187.89,1524.12 1162.76,1529.19 1137.75,1533.19L1135.08,1533.63C1128.99,1534.66 1122.89,1535.47 1116.75,1536.19L1113.31,1536.6C1092.23,1539.04 1071.21,1539.48 1050,1539.5L1046.15,1539.51C1029.59,1539.54 1013.23,1538.93 996.75,1537.19L994.518,1536.95C990.274,1536.49 986.043,1535.95 981.812,1535.38L978.011,1534.86C965.811,1533.14 953.773,1530.86 941.75,1528.19L938.679,1527.51C899.163,1518.66 860.484,1505.69 824.812,1486.36C821.559,1484.6 818.269,1482.94 814.945,1481.33C783.876,1466.15 753.787,1446.4 727.676,1423.71C724.812,1421.24 721.888,1418.87 718.937,1416.5C714.914,1413.23 711.234,1409.79 707.625,1406.07C705.838,1404.28 703.992,1402.64 702.062,1401C693.983,1394.04 686.368,1386.32 679.473,1378.19C677.376,1375.75 675.186,1373.42 673,1371.06C668.178,1365.78 663.772,1360.24 659.398,1354.58C657.105,1351.62 654.723,1348.74 652.312,1345.88C636.257,1326.31 622.928,1304.31 610.75,1282.19L609.369,1279.7C594.577,1252.96 582.571,1223.99 573.82,1194.72C573.021,1192.08 572.176,1189.48 571.285,1186.87C565.881,1170.73 562.773,1153.86 559.5,1137.19L558.977,1134.55C556.339,1121.18 553.75,1107.86 553.75,1094.19L808.75,1094.19C810.75,1101.19 810.75,1101.19 811.687,1104.64C816.937,1123.4 823.359,1142.25 832.752,1159.37C833.797,1161.27 834.81,1163.19 835.824,1165.11C846.181,1184.4 859.779,1201.3 874.75,1217.19L876.957,1219.56C882.831,1225.67 889.348,1230.82 896.092,1235.93C897.525,1237.02 898.942,1238.13 900.355,1239.24C930.555,1262.38 971.058,1278.18 1008.55,1283.85C1010.06,1284.08 1011.58,1284.33 1013.1,1284.6C1044.83,1290.07 1080.25,1289.77 1111.75,1283.19L1114.92,1282.55C1136.43,1278.16 1157.11,1271 1176.75,1261.19C1177.99,1260.61 1179.23,1260.04 1180.47,1259.47C1196.47,1252 1211.54,1241.89 1224.75,1230.19L1227.24,1228.03C1236.73,1219.66 1245.62,1210.85 1253.42,1200.88C1254.97,1198.91 1256.54,1196.97 1258.11,1195.02C1265.47,1185.8 1272.04,1176.51 1277.75,1166.19L1278.77,1164.39C1289.22,1145.98 1296.8,1126.36 1301.39,1105.71L1302.09,1102.63C1302.64,1100.15 1303.2,1097.67 1303.75,1095.19L1306.59,1095.19C1329.45,1095.17 1352.32,1095.13 1375.18,1095.06C1386.24,1095.02 1397.29,1095 1408.35,1094.99C1418,1094.99 1427.64,1094.97 1437.29,1094.93C1442.39,1094.91 1447.49,1094.89 1452.59,1094.9C1457.4,1094.91 1462.21,1094.89 1467.03,1094.86C1468.78,1094.85 1470.54,1094.85 1472.29,1094.86C1497.9,1094.99 1521.34,1086.31 1539.75,1068.19C1552.67,1055.3 1560.89,1036.69 1561.02,1018.42L1561,1016.03L1561.01,1013.39C1561.02,1010.5 1561.02,1007.6 1561.01,1004.7L1561.02,998.393C1561.03,992.624 1561.03,986.855 1561.03,981.086C1561.02,974.859 1561.03,968.633 1561.04,962.407C1561.05,950.213 1561.06,938.02 1561.05,925.826C1561.05,915.915 1561.05,906.004 1561.06,896.093L1561.06,891.819L1561.06,885.377C1561.07,865.418 1561.07,845.459 1561.07,825.501L1561.07,823.222L1561.07,811.786L1561.07,809.492L1561.07,804.9C1561.06,781.08 1561.07,757.259 1561.09,733.439C1561.11,706.665 1561.12,679.891 1561.11,653.117L1561.11,644.549L1561.11,642.419C1561.11,631.813 1561.12,621.207 1561.13,610.601C1561.14,598.536 1561.14,586.472 1561.13,574.408C1561.12,568.253 1561.12,562.099 1561.13,555.945C1561.14,550.308 1561.14,544.672 1561.13,539.035C1561.13,536.999 1561.13,534.962 1561.14,532.926C1561.18,519.442 1560.15,507.591 1554.56,495.125L1553.65,493.082C1550.78,486.858 1547.17,481.437 1542.75,476.188L1541.14,474.277C1523.84,455.524 1499.1,449.379 1474.56,448.071C1469.47,447.886 1464.38,447.875 1459.29,447.869L1454.31,447.838C1449.87,447.811 1445.44,447.796 1441,447.783C1436.34,447.767 1431.68,447.74 1427.02,447.715C1418.22,447.668 1409.43,447.631 1400.63,447.598C1390.6,447.56 1380.58,447.51 1370.55,447.46C1349.95,447.357 1329.35,447.268 1308.75,447.188L1306.52,440.519C1305.45,437.298 1304.43,434.063 1303.4,430.828C1298.23,414.707 1292.77,399.16 1284.75,384.188L1283.7,382.206C1273.52,363.15 1260.68,345.761 1245.75,330.188L1244.22,328.578C1236.88,320.872 1229.21,313.973 1220.67,307.621C1218.64,306.11 1216.64,304.572 1214.64,303.035C1204.09,295.066 1193.04,288.52 1181.28,282.486C1179.09,281.36 1176.91,280.207 1174.73,279.047C1138.77,260.483 1097.84,253.999 1057.84,254.002C1055.02,254 1052.19,253.982 1049.37,253.963C1032.58,253.909 1016.14,255.113 999.687,258.625L996.627,259.244C989.921,260.629 983.339,262.33 976.75,264.188L973.035,265.18C965.3,267.299 958.072,269.932 950.75,273.188L946.293,275.086C927.995,282.972 910.997,292.462 895.39,304.886C893.964,306.018 892.519,307.124 891.07,308.227C873.233,321.97 858.293,338.555 845.75,357.188L844.219,359.441C827.028,384.855 814.93,411.921 805.75,441.188L803.75,447.188L554.75,447.188C558.384,418.115 562.532,390.292 569.812,362L570.807,358.133C573.566,347.584 576.443,337.136 580.641,327.063C581.764,324.15 582.717,321.219 583.659,318.245C601.732,261.574 635.459,206.367 676.117,163.031C678.058,160.935 679.921,158.822 681.773,156.652C686.534,151.19 691.661,146.091 696.782,140.97C698.488,139.262 700.185,137.546 701.883,135.83C707.784,129.899 713.756,124.315 720.333,119.13C722.862,117.098 725.245,114.953 727.625,112.75C733.386,107.521 739.511,102.823 745.75,98.188L747.782,96.671C759.093,88.262 770.725,80.533 782.75,73.188L784.772,71.937C812.43,54.866 842.155,41.077 872.75,30.188L876.363,28.863C888.873,24.311 901.574,20.602 914.437,17.188L916.417,16.661C931.096,12.766 945.69,9.255 960.75,7.188C964.292,6.691 967.834,6.189 971.375,5.688L974.171,5.295C978.557,4.673 982.908,4.006 987.25,3.125C1007.2,-0.521 1027.46,-0.126 1047.66,-0.073ZM-778.25,16.188L-555.25,16.188L-555.225,181.334L-555.224,187.621C-555.217,236.978 -555.212,286.335 -555.208,335.692L-555.207,340.537L-555.199,442.436L-555.195,493.697L-555.195,501.425C-555.191,551.506 -555.184,601.587 -555.176,651.669C-555.162,731.974 -555.153,812.279 -555.152,892.584L-555.152,899.824C-555.151,975.773 -555.155,1051.72 -555.477,1296.17L-555.492,1302.16L-555.507,1307.97L-555.513,1310.44C-555.69,1380.36 -555.985,1450.27 -556.25,1520.19L-853.25,1520.19L-854.25,474.188L-1036.25,473.188L-1036.25,237.188C-1032,235.77 -1028.32,234.725 -1023.98,233.926L-1020.33,233.235L-1016.44,232.5C-985.44,226.479 -954.604,217.224 -926.25,203.188L-923.25,201.707C-891.256,185.775 -857.936,164.435 -835.25,136.188L-834.025,134.681C-827.632,126.799 -821.737,118.734 -816.25,110.188L-814.484,107.559C-803.952,91.642 -797.187,73.875 -790.25,56.188L-789.354,53.911C-785.75,44.651 -783.258,35.13 -780.857,25.504C-780.04,22.385 -779.136,19.288 -778.25,16.188ZM553.75,473.188C741.204,473.188 741.204,473.188 766.75,496.188L768.859,497.98C784.346,512.057 788.539,532.306 789.547,552.237C789.9,560.137 789.895,568.035 789.89,575.942L789.899,581.397C789.907,586.34 789.909,591.283 789.91,596.226C789.912,601.578 789.919,606.93 789.926,612.282C789.94,623.955 789.946,635.628 789.95,647.302C789.953,654.599 789.957,661.896 789.962,669.193C789.974,689.426 789.984,709.659 789.988,729.892L789.988,733.806L789.989,737.73L789.991,749.543C789.995,770.644 790.012,791.744 790.036,812.845C790.059,834.545 790.072,856.245 790.073,877.946C790.074,890.115 790.08,902.285 790.098,914.454C790.113,924.811 790.118,935.167 790.11,945.524C790.106,950.802 790.107,956.08 790.121,961.358C790.134,966.2 790.133,971.041 790.12,975.883C790.119,977.624 790.122,979.365 790.13,981.107C790.197,995.184 789.977,1010.62 782.625,1023.06L781.433,1025.18C768.955,1046.77 749.246,1060.06 725.586,1066.57C669.599,1078.68 611.031,1068.19 553.75,1068.19L553.75,473.188ZM656.848,551.949C651.063,551.996 645.447,552.123 639.75,553.188C638.75,554.188 638.75,554.188 638.625,556.949L638.624,560.733C638.619,562.974 638.616,565.214 638.619,567.454C638.622,569.114 638.622,570.773 638.621,572.433C638.616,577 638.614,581.568 638.617,586.135C638.621,591.134 638.62,596.132 638.617,601.131C638.612,610.923 638.611,620.715 638.614,630.508C638.616,638.56 638.618,646.611 638.617,654.663L638.615,665.076C638.612,686.856 638.614,708.636 638.62,730.417C638.624,749.153 638.625,767.89 638.621,786.627C638.615,808.45 638.612,830.273 638.615,852.097L638.616,859.098L638.616,862.578C638.617,870.627 638.617,878.676 638.615,886.725C638.612,896.634 638.611,906.544 638.615,916.453C638.618,921.529 638.622,926.604 638.619,931.679C638.606,951.198 638.434,970.702 639.75,990.188L641.849,990.195L644.608,990.205C648.493,990.218 652.377,990.229 656.262,990.236L663,990.25C666.311,990.263 669.623,990.275 672.934,990.281L676.078,990.285L679.131,990.301L681.981,990.301C687.94,990.317 693.086,989.113 697.75,985.188C703.932,977.364 704.608,969.428 704.516,959.88C704.5,958.26 704.494,956.64 704.499,955.021C704.525,950.532 704.529,946.045 704.506,941.556C704.48,936.657 704.48,931.759 704.49,926.861C704.51,917.257 704.503,907.653 704.476,898.049C704.444,886.769 704.436,875.49 704.437,864.21C704.439,844.117 704.418,824.024 704.375,803.931C704.333,784.364 704.304,764.798 704.306,745.232L704.306,741.573L704.306,737.919C704.309,715.549 704.295,693.179 704.268,670.809C704.259,662.92 704.253,655.031 704.251,647.142C704.249,637.436 704.241,627.732 704.216,618.027C704.202,613.072 704.186,608.118 704.186,603.163C704.19,598.571 704.19,593.979 704.172,589.387C704.164,587.714 704.157,586.041 704.151,584.369C704.158,582.062 704.166,579.757 704.152,577.45L704.136,575.359C704.123,567.644 702.137,561.883 696.75,556.188C692.317,552.453 689.131,551.728 683.541,551.709L680.785,551.762C677.817,551.772 674.851,551.788 671.883,551.831C669.838,551.86 667.793,551.881 665.747,551.892C663.743,551.9 661.738,551.911 659.734,551.925L656.848,551.949ZM1304.75,474.188C1325.07,474.141 1345.4,474.105 1365.72,474.084C1375.16,474.074 1384.6,474.06 1394.04,474.037C1402.27,474.017 1410.5,474.004 1418.74,473.999C1423.09,473.997 1427.44,473.991 1431.8,473.976C1435.91,473.962 1440.02,473.958 1444.13,473.961C1445.62,473.961 1447.12,473.957 1448.62,473.949C1462.11,473.883 1475.88,474.326 1488.56,479.375L1490.98,480.309C1508.28,487.212 1521.36,499.04 1529,516.063C1533.66,527.507 1535.91,538.876 1535.88,551.217L1535.89,553.554C1535.89,556.128 1535.89,558.703 1535.89,561.277L1535.9,566.882C1535.91,572.009 1535.91,577.137 1535.91,582.264C1535.91,587.797 1535.92,593.329 1535.93,598.862C1535.94,610.957 1535.95,623.052 1535.95,635.148C1535.95,642.703 1535.96,650.259 1535.96,657.814C1535.97,678.742 1535.98,699.67 1535.99,720.598L1535.99,724.656L1535.99,728.723L1535.99,736.882L1535.99,738.925C1535.99,760.78 1536.01,782.634 1536.03,804.489C1536.06,827.615 1536.07,850.741 1536.07,873.866C1536.07,886.465 1536.08,899.063 1536.1,911.661C1536.11,922.391 1536.12,933.12 1536.11,943.849C1536.11,949.319 1536.11,954.789 1536.12,960.259C1536.13,965.276 1536.13,970.292 1536.12,975.309C1536.12,977.115 1536.12,978.921 1536.13,980.727C1536.25,1006.64 1530.51,1029.12 1511.98,1048.11C1499.12,1060.7 1483.43,1067.32 1465.49,1067.31L1463.41,1067.31C1461.14,1067.31 1458.87,1067.31 1456.6,1067.3L1451.69,1067.3C1447.27,1067.3 1442.84,1067.3 1438.42,1067.29C1433.79,1067.28 1429.16,1067.28 1424.53,1067.28C1415.76,1067.28 1407,1067.27 1398.24,1067.26C1388.26,1067.25 1378.28,1067.24 1368.31,1067.24C1347.79,1067.23 1327.27,1067.21 1306.75,1067.19L1306.75,1063.74C1306.67,1013.48 1306.59,963.214 1306.51,912.953L1306.5,910.642L1306.42,860.914L1306.38,836.523L1306.37,834.072C1306.33,807.911 1306.29,781.749 1306.25,755.588C1306.21,728.675 1306.16,701.762 1306.12,674.848L1306.1,663.411L1306.09,661.137C1306.07,649.122 1306.05,637.108 1306.04,625.093C1306.02,612.977 1306,600.86 1305.98,588.743C1305.96,582.194 1305.95,575.644 1305.95,569.094C1305.92,545.234 1305.86,521.403 1304.96,497.558C1304.68,489.765 1304.64,481.984 1304.75,474.188ZM1424,552.813C1417.31,552.822 1410.71,553.254 1404.05,553.928L1401.33,554.208C1398.14,554.533 1394.94,554.858 1391.75,555.188C1391.73,609.291 1391.71,663.394 1391.7,717.498L1391.7,737.048L1391.69,740.985C1391.69,762.076 1391.68,783.168 1391.67,804.26C1391.66,825.967 1391.66,847.673 1391.66,869.38C1391.65,882.76 1391.65,896.141 1391.64,909.522C1391.64,918.776 1391.64,928.03 1391.64,937.285C1391.64,942.622 1391.64,947.958 1391.63,953.295C1391.63,958.253 1391.62,963.21 1391.63,968.168L1391.63,973.553C1391.62,976.049 1391.62,978.546 1391.62,981.042L1391.63,983.271C1391.62,985.587 1391.65,987.872 1391.75,990.188C1392.87,991.305 1392.87,991.305 1398.45,991.378L1400.88,991.391C1402.57,991.402 1404.26,991.413 1405.95,991.422C1408.63,991.428 1411.3,991.437 1413.97,991.469C1415.7,991.489 1417.44,991.503 1419.18,991.51L1421.69,991.516C1429.07,991.631 1434.58,990.497 1441.14,986.863L1443,985.5L1444.89,984.176C1451.37,977.248 1451.37,977.248 1451.26,960.275C1451.25,958.654 1451.25,957.033 1451.25,955.412C1451.27,950.929 1451.27,946.447 1451.25,941.964C1451.24,937.068 1451.24,932.172 1451.24,927.276C1451.26,917.681 1451.25,908.085 1451.23,898.49C1451.21,887.22 1451.21,875.95 1451.21,864.68C1451.21,844.611 1451.2,824.541 1451.17,804.472C1451.14,784.92 1451.12,765.368 1451.12,745.815L1451.12,742.16L1451.12,738.509C1451.12,716.167 1451.11,693.826 1451.1,671.484C1451.09,663.601 1451.09,655.719 1451.08,647.836C1451.08,638.137 1451.08,628.438 1451.06,618.739C1451.05,613.79 1451.04,608.84 1451.04,603.89C1451.04,599.3 1451.04,594.709 1451.03,590.118L1451.02,585.11C1451.02,582.803 1451.03,580.495 1451.02,578.188L1451.01,576.105C1451,570.738 1450.48,566.843 1447.52,562.309L1446.12,560.625L1444.77,558.934C1439.28,554.195 1434.03,552.708 1426.85,552.738L1424,552.813ZM815.75,472.188C835.191,472.246 854.633,472.307 874.074,472.396C885.973,472.451 897.872,472.502 909.771,472.534C918.438,472.557 927.106,472.59 935.773,472.636C940.358,472.66 944.943,472.679 949.527,472.685C953.853,472.691 958.178,472.711 962.504,472.742C964.081,472.75 965.659,472.754 967.237,472.753C979.979,472.743 992.237,473.968 1003.94,479.438L1005.96,480.356C1024.52,489.01 1037.87,502.129 1045.75,521.188C1049.26,531.488 1050.9,541.241 1050.89,552.066L1050.9,554.667C1050.91,557.526 1050.91,560.384 1050.91,563.243L1050.93,569.414C1050.94,574.991 1050.95,580.568 1050.95,586.145L1050.96,596.612C1050.97,607.543 1050.99,618.473 1050.99,629.404C1050.99,641.995 1051.01,654.587 1051.04,667.178C1051.06,676.928 1051.07,686.679 1051.07,696.43C1051.07,702.245 1051.08,708.06 1051.1,713.875C1051.11,719.35 1051.12,724.825 1051.11,730.3C1051.11,732.3 1051.11,734.3 1051.12,736.3C1051.22,757.94 1047.81,773.046 1032.75,789.188C1023.32,798.024 1007.5,810.188 993.75,810.188C996.009,826.471 1000.4,842.308 1005.09,858.032C1007.17,865.043 1009.02,872.083 1010.75,879.188C1012.97,888.286 1015.47,897.265 1018.14,906.24C1020.2,913.189 1022.08,920.167 1023.88,927.188C1025.53,933.644 1027.26,940.036 1029.31,946.375C1031.21,952.265 1032.79,958.174 1034.25,964.188C1035.86,970.808 1037.65,977.292 1039.74,983.778C1042.71,993.078 1045.24,1002.51 1047.84,1011.92C1048.72,1015.1 1049.61,1018.27 1050.51,1021.44C1053.62,1032.49 1056.69,1043.55 1059.69,1054.62L1060.62,1058.04L1061.46,1061.18L1062.22,1063.97C1062.75,1066.19 1062.75,1066.19 1062.75,1068.19L979.75,1068.19C977.296,1062.46 975.248,1056.91 973.375,1051L972.45,1048.09C969.696,1039.27 967.442,1030.37 965.287,1021.4C962.658,1010.58 959.55,999.871 956.53,989.155C954.657,982.492 952.842,975.815 951.067,969.125C948.529,959.563 945.858,950.085 942.808,940.672C940.935,934.869 939.338,929.021 937.809,923.117C936.36,917.632 934.675,912.216 933.027,906.788C931.397,901.399 929.851,895.995 928.375,890.563C926.036,881.986 923.408,873.506 920.769,865.018C918.605,858.037 916.539,851.036 914.563,844C912.806,837.78 910.999,831.585 909,825.438L907.828,821.828C907.034,819.055 907.034,819.055 904.75,818.188L904.753,821.256C904.782,849.654 904.692,878.05 904.548,906.447L904.464,923.599L904.305,955.852L904.123,992.667C904,1017.84 903.875,1043.01 903.75,1068.19L817.75,1068.19C817.063,1036.39 816.591,1004.63 816.549,972.831C816.541,967.28 816.528,961.729 816.515,956.179C816.49,945.377 816.471,934.576 816.453,923.775C816.432,911.094 816.405,898.413 816.379,885.731C816.331,863.027 816.288,840.323 816.247,817.619C816.208,795.794 816.167,773.97 816.122,752.146L816.118,750.114L816.085,733.908C816.036,709.627 815.988,685.346 815.941,661.065L815.919,649.818C815.804,590.608 815.717,531.398 815.75,472.188ZM903.75,552.188L902.75,734.188C911.504,734.188 944.988,739.497 959.063,729.938C962.633,726.284 965.439,723.178 966.245,718.021L966.238,714.564C966.249,712.523 966.258,710.483 966.24,708.442C966.227,706.95 966.22,705.457 966.221,703.965C966.231,699.895 966.227,695.825 966.203,691.754C966.178,687.428 966.169,683.102 966.167,678.776C966.164,671.532 966.149,664.289 966.119,657.046C966.078,647.675 966.052,638.304 966.042,628.933C966.034,620.815 966.02,612.697 966.001,604.579L965.988,599.395C965.978,594.375 965.968,589.356 965.947,584.336L965.927,579.753L965.919,575.394L965.897,571.43C965.875,565.534 965.152,562.517 961.492,557.785C955.388,552.188 955.388,552.188 903.75,552.188ZM1078.75,473.188L1279.75,473.188L1279.75,552.188L1165.75,552.188L1166.75,722.188L1263.75,722.188L1263.75,803.188L1166.75,804.188C1166.72,837.044 1166.72,837.044 1166.7,869.9C1166.69,883.291 1166.69,896.681 1166.67,910.072C1166.66,919.822 1166.66,929.572 1166.66,939.322C1166.65,944.488 1166.65,949.654 1166.64,954.821C1166.64,959.677 1166.63,964.534 1166.64,969.39C1166.64,971.178 1166.63,972.966 1166.63,974.754C1166.63,977.184 1166.63,979.614 1166.63,982.044L1166.62,984.216C1166.35,987.483 1166.35,987.483 1167.75,990.188C1169.22,990.295 1170.69,990.334 1172.16,990.346L1175.05,990.375L1178.24,990.393L1181.58,990.423C1185.24,990.455 1188.9,990.479 1192.57,990.504L1200.16,990.567C1206.16,990.617 1212.15,990.662 1218.15,990.705C1226.84,990.768 1235.53,990.839 1244.22,990.91C1256.4,991.008 1268.57,991.097 1280.75,991.188L1280.75,1068.19L1079.75,1068.19C1079.5,964.894 1079.5,964.894 1079.39,920.563L1079.32,890.16L1079.31,886.315L1079.19,833.504C1079.11,803.073 1079.04,772.642 1078.97,742.211L1078.96,738.599C1078.84,686.285 1078.73,633.971 1078.72,581.657L1078.72,578.941C1078.71,543.69 1078.73,508.439 1078.75,473.188Z" style="fill:rgb(1,1,1);"/>
        </g>
    </g>
</svg>
