<svg xmlns="http://www.w3.org/2000/svg" width="177" height="224" viewBox="0 0 177 224">
<!-- SVG created with Arrow, by QuiverAI (https://quiver.ai) -->
  <path d="m0 0h177v223.8h-177v-223.8z" fill="#000"/>
  <path d="m164.9 4.39c-8.65-0.74-18.38 0.12-27.15 0.12-5.62 0-14.26-2.13-16.56 1.61-2.05 1.57-2.05 4.73-1.9 8.73l-0.31 98.83c-12.53 6.8-27.74 12.5-47.29 21.73v-122.5c0-4.15-0.81-9.12-5-8.92h-28.67c-2.63 0-4.34 1.87-6.01 4.07-9.15 10.2-17.63 21.32-25.05 31.88-2.1 3.16-5.13 6.32-3.71 9.75 1.66 3.72 6.11 3.12 8.53 3.13h8.03v155c0 5.37 0.77 11.78 6.98 11.47l37.5-0.28c6.43 0 7.41-4.6 7.41-8.16l-0.05-65.07c1.17 1.3 1.83 1.06 3.05 1.06h45.34l0.11 60.56c-0.56 6.53-0.56 11.51 7.79 12.28 7.27 0.69 14.91 0.05 22.11 0.23 5.98 0.15 9.84 0 16.94-0.63 6.69-0.52 7.09-4.27 7.09-8.44v-198.4c0-5.18-1.98-7.59-9.18-8.01zm3.38 207.7c0 1.83-0.15 2.64-1.43 2.69-6.46 0.69-11.66 0.27-17.9 0.58-6.61 0.31-13.37 0.48-19.81-0.31-3.92-0.48-4.06-0.23-3.92-5.85l0.2-67.48h-49.64c-1.2-1.01-0.32-1.63 0.27-1.97 14.24-7.84 30.18-12.72 48.7-23.13l0.46-101.7c0.08-2.66-0.46-5.54 2.42-5.54 6.91 0.89 17.38-0.28 27.56-0.2 4.45 0.05 7.81 0.05 10.45 0.55 2.3 0.47 2.64 2.1 2.64 4.57v197.8z" fill="#fff"/>
  <path d="m37.9 8.94h27.86c1.09 0 1.09 0 1.35 3.94v197.5c0 3.56-0.48 3.84-3.05 3.84l-37.5 0.28c-1.51 0-1.64-2.79-1.64-6.32v-157.9c0-2.25-1.41-2.96-3-2.96-3.14 0-5.71 0.19-8.85 0.19-2.42 0-4.46 0.08-4.38-0.77 0.14-0.99 3.36-5.32 8.3-11.77 6.36-8.38 14.89-18.32 20.91-26.05z" fill="#000"/>
</svg>